The Quick And The Dead 1995 BluRay ac3 x264-LoNeWoLf

Encoded by Tequila-Bob a.k.a. bobnjeff a.k.a.LoNeWoLf

Source - NTSC BluRay Disc.

Movie has been tested and is DXVA Compliant
 
http://www.imdb.com/title/tt0114214/

  The Quick and the Dead (1995) 
  107 min  -  Action | Adventure | Western   -  10 February 1995 (USA) 
  6.3/10 X  Users: 6.3/10 (28,343 votes) 187 reviews | Critics: 52 reviews Metascore: 49/100 (based on 21 reviews from Metacritic.com) 
  Lady avenger returns to western town owned by a ruthless gunslinger hosting an elimination tournament. 

Director: Sam Raimi
Writer: Simon Moore
Stars:Sharon Stone, Gene Hackman , Russell Crowe  
 
Genres:Action , Adventure , Western 

Rated R for western violence

Release Date:10 February 1995 (USA) 

Storyline
Ellen, an unknown female gunslinger rides into a small, dingy and depressing prairie town with a secret as to her reason for showing up. Shortly after her arrival, a local preacher, Cort, is thrown through the saloon doors while townfolk are signing up for a gun competition. The pot is a huge sum of money and the only rule: that you follow the rules of the man that set up the contest, Herod. Herod is also the owner, leader, and "ruler" of the town. Seems he's arranged this little gun-show-off so that the preacher (who use to be an outlaw and rode with Herod) will have to fight again. Cort refuses to ever use a gun to kill again and Herod, acknowledging Cort as one of the best, is determined to alter this line of thinking ... even if it gets someone killed ... 

Cast
Cast overview, first billed only: 
  Sharon Stone  ...  Ellen  
  Gene Hackman  ...  Herod  
  Russell Crowe  ...  Cort  
  Leonardo DiCaprio  ...  Kid  
  Tobin Bell  ...  Dog Kelly  
  Roberts Blossom  ...  Doc Wallace  
  Kevin Conway  ...  Eugene Dred  
  Keith David  ...  Sgt. Cantrell  
  Lance Henriksen  ...  Ace Hanlon  
  Pat Hingle  ...  Horace the Bartender  
  Gary Sinise  ...  Marshall  
  Mark Boone Junior  ...  Scars  
  Olivia Burnette  ...  Katie  
  Fay Masterson  ...  Mattie Silk  
  Raynor Scheine  ...  Ratsy  


[img]http://torrent-stats.info/e153/faa2d4e6.png[/img]

See the full size 1920x1040 PNG files at the link below
 
http://s1015.photobucket.com/albums/af279/tequila-bob/The%20Quick%20And%20The%20Dead%201995/

Format : Matroska 
File size : 7.33 GiB 
Duration : 1h 45mn 
Overall bit rate : 9 984 Kbps 
Encoded date : UTC 2010-12-22 01:08:20 
Writing application : mkvmerge v4.4.0 ('Die Wiederkehr') built on Oct 31 2010 21:52:48 
Writing library : libebml v1.0.0 + libmatroska v1.0.0 

Video 
ID : 1 
Format : AVC 
Format/Info : Advanced Video Codec 
Format profile : High@L4.1 
Format settings, CABAC : Yes 
Format settings, ReFrames : 3 frames 
Muxing mode : Container profile=Unknown@4.1 
Codec ID : V_MPEG4/ISO/AVC 
Duration : 1h 45mn 
Bit rate : 9 318 Kbps 
Width : 1 920 pixels 
Height : 1 040 pixels 
Display aspect ratio : 16:9 
Frame rate : 23.976 fps 
Color space : YUV 
Chroma subsampling : 4:2:0 
Bit depth : 8 bits 
Scan type : Progressive 
Bits/(Pixel*Frame) : 0.195 
Stream size : 6.71 GiB (92%) 
Writing library : x264 core 98 r1649 c54c47d 
Encoding settings : cabac=1 / ref=3 / deblock=1:-3:-1 / analyse=0x3:0x113 / me=umh / subme=9 / psy=1 / psy_rd=1.00:0.15 / mixed_ref=1 / me_range=32 / chroma_me=1 / trellis=2 / 8x8dct=1 / cqm=0 / deadzone=21,11 / fast_pskip=0 / chroma_qp_offset=-3 / threads=6 / sliced_threads=0 / nr=0 / decimate=1 / interlaced=0 / constrained_intra=0 / bframes=3 / b_pyramid=1 / b_adapt=2 / b_bias=0 / direct=1 / weightb=1 / weightp=2 / keyint=250 / keyint_min=25 / scenecut=40 / intra_refresh=0 / rc_lookahead=60 / rc=2pass / mbtree=1 / bitrate=9318 / ratetol=1.0 / qcomp=0.60 / qpmin=10 / qpmax=51 / qpstep=4 / cplxblur=20.0 / qblur=0.5 / vbv_maxrate=50000 / vbv_bufsize=50000 / ip_ratio=1.40 / aq=1:1.50 / nal_hrd=none 
Language : English 

Audio 
ID : 2 
Format : AC-3 
Format/Info : Audio Coding 3 
Mode extension : CM (complete main) 
Codec ID : A_AC3 
Duration : 1h 45mn 
Bit rate mode : Constant 
Bit rate : 640 Kbps 
Channel(s) : 6 channels 
Channel positions : Front: L C R, Side: L R, LFE 
Sampling rate : 48.0 KHz 
Bit depth : 16 bits 
Stream size : 481 MiB (6%) 
Title : 3/2+1 
Language : English 

Text
ID : 3 
Format : PGS 
Codec ID : S_HDMV/PGS 
Codec ID/Info : The same subtitle format used on BDs/HD-DVDs 
Language : English , French


Menu & 15 Chapters


See the full size 1920x1040 PNG files at the link below
 
http://s1015.photobucket.com/albums/af279/tequila-bob/The%20Quick%20And%20The%20Dead%201995/
